<svg width="365" height="94" viewBox="0 0 365 94" fill="none" xmlns="http://www.w3.org/2000/svg">
<path d="M40.1993 22.6897C29.5949 22.6897 22.5629 26.7601 18.2467 33.666V0H-0.00062561V86.3164H18.2467V77.4384C22.5629 84.2181 29.5949 88.2885 40.1993 88.2885C60.4188 88.2885 68.6859 73.2484 68.6859 55.3663C68.6859 37.856 60.4188 22.6897 40.1993 22.6897ZM34.6481 73.9855C23.0609 73.9855 18.2467 68.069 18.2467 55.4858C18.2467 42.9092 23.0609 36.9927 34.6481 36.9927C46.2419 36.9927 50.3124 42.6635 50.3124 55.4858C50.3124 68.1885 46.2419 73.9855 34.6481 73.9855Z" fill="#191319"/>
<path d="M100.123 75.7119C91.3713 75.7119 85.5744 71.8872 84.4655 60.1738H131.445C131.691 58.8192 131.691 57.0927 131.691 55.2401C131.691 37.856 123.059 22.6897 99.7513 22.6897C76.9421 22.6897 66.5834 37.4841 66.5834 55.3663C66.5834 72.7504 75.707 88.2885 99.7513 88.2885C121.95 88.2885 129.845 77.5646 131.571 67.6972H114.061C112.335 72.259 108.138 75.7119 100.123 75.7119ZM100.004 35.0206C109.127 35.0206 113.689 39.702 114.307 49.078H84.585C86.0658 38.5931 91.2452 35.0206 100.004 35.0206Z" fill="#191319"/>
<path d="M160.176 86.3164H171.77V71.7676H155.74V38.4735H173.496V24.6618H155.74V9.98694H146.49L138.967 24.5357L126.264 29.7151V38.4735H137.486V64.1181C137.486 78.793 142.666 86.3164 160.176 86.3164Z" fill="#191319"/>
<path d="M258.699 24.6619L246.979 72.6309L231.939 24.6619H212.948L197.901 72.7504L186.068 24.6619H167.568L183.844 86.3164H209.369L221.7 43.6529L234.157 86.3164H259.562L275.837 24.6619H258.699Z" fill="#191319"/>
<path d="M314.313 22.6898C303.091 22.6898 296.066 28.3606 292.115 36.7472V24.662H273.868V86.3165H292.115V58.3279C292.115 43.653 297.547 37.4843 307.288 37.4843C314.805 37.4843 319.001 41.4286 319.001 51.2959V86.3165H337.249V48.4606C337.249 32.3049 330.469 22.6898 314.313 22.6898Z" fill="#191319"/>
<mask id="mask0_23_3" style="mask-type:luminance" maskUnits="userSpaceOnUse" x="339" y="62" width="26" height="26">
<path d="M339.388 62.3926H364.395V87.4063H339.388V62.3926Z" fill="white"/>
</mask>
<g mask="url(#mask0_23_3)">
<mask id="mask1_23_3" style="mask-type:luminance" maskUnits="userSpaceOnUse" x="339" y="62" width="26" height="26">
<path d="M351.89 62.3926C344.984 62.3926 339.387 67.9903 339.387 74.8961C339.387 81.802 344.984 87.4063 351.89 87.4063C358.796 87.4063 364.394 81.802 364.394 74.8961C364.394 67.9903 358.796 62.3926 351.89 62.3926Z" fill="white"/>
</mask>
<g mask="url(#mask1_23_3)">
<path d="M339.387 62.3926H364.394V87.4063H339.387V62.3926Z" fill="#191319"/>
</g>
</g>
<mask id="mask2_23_3" style="mask-type:luminance" maskUnits="userSpaceOnUse" x="154" y="23" width="37" height="72">
<path d="M154.377 23.8793H190.075V94.0001H154.377V23.8793Z" fill="white"/>
</mask>
<g mask="url(#mask2_23_3)">
<path d="M172.161 22.4836H190.53L175.961 47.1989H186.729L154.105 94.1586L168.673 57.7426L156.96 58.3211L172.161 22.4836Z" fill="white"/>
</g>
<mask id="mask3_23_3" style="mask-type:luminance" maskUnits="userSpaceOnUse" x="154" y="23" width="22" height="72">
<path d="M154.377 23.8793H175.984V94.0001H154.377V23.8793Z" fill="white"/>
</mask>
<g mask="url(#mask3_23_3)">
<path d="M172.027 22.4836H175.122L157.18 58.1423L172.027 22.4836ZM154.391 93.8009L170.786 57.5666H168.621L154.391 93.8009Z" fill="white"/>
</g>
</svg>
